<?xml version="1.0" encoding="utf-8"?>
<!-- Generator: Adobe Illustrator 25.4.1, SVG Export Plug-In . SVG Version: 6.00 Build 0)  -->
<svg version="1.1" id="Layer_1" xmlns="http://www.w3.org/2000/svg" xmlns:xlink="http://www.w3.org/1999/xlink" x="0px" y="0px"
	 viewBox="0 0 500 500" style="enable-background:new 0 0 500 500;" xml:space="preserve">
<style type="text/css">
	.st0{fill:#B7AFA6;}
</style>
<g>
	<g>
		<path class="st0" d="M249,328.4L249,328.4c0.1-1.1,1.8-1.2,1.9,0l0,0c8.6,81,17.4,120.8,19.5,129.3c0.1,0.4-0.1,0.9-0.4,1.1
			c-3.5,2.8-4.3,6.8-2.3,11.5c3.4,8.2,30,11.6,42.2,13.4c4.2,0.6,12.6,1.3,16.5,1.3c6.5,0,12.4-1.1,16.5-3.4c5.9-3.1,8-8.3,5.7-13.9
			c-3.9-9.4-18.5-15.8-24.2-18c-0.5-0.2-0.9-0.5-1.1-1c-2.7-5.3-10.6-21.7-17.9-47.2c-5.5-19.3-16.5-52.4-19.2-83.9
			c-0.1-1.1,1.2-1.7,2-1c63.3,58.4,97.2,80.1,104.6,85.3c0.3,0.2,0.5,0.8,0.4,1.2c-0.9,4.4,1.2,8,5.8,10.3c8,4,30.3-10.8,40.7-17.4
			c3.6-2.3,10.4-7.2,13.3-9.8c4.9-4.2,8.6-8.9,10.3-13.3c2.4-6.2,0.6-11.5-4.7-14.2c-9.5-4.8-25.8,0.5-30.9,2.4
			c-24.6-6.6-111.3-69.6-126.9-81.1c-0.9-0.6-0.5-2,0.6-2.1c23.2-2.5,56.8-3.6,77-2.4c16.1,0.9,32.1,2.9,48,5.7
			c39.5,7,66.4,2.6,66.4-25.3c0-30.2-38.1-24.8-38.1-24.8s5.6-11.9-10-11.9c-18,0-33.7,18.1-33.7,18.1s-52.1,13-103,6
			c-0.8-0.1-1.2-0.9-0.9-1.7c7.4-15.8,40.1-40.8,42.6-42.6c4-2.9,7.9-5.8,11.6-8.4c13.1-9.2,26.8-17.6,40.8-25.2
			c35.3-19.1,53.5-39.3,36.2-61.1c-18.8-23.7-45.2,4.3-45.2,4.3s-3-12.8-15.2-3.1c-14.1,11.2-15.1,35.1-15.1,35.1
			s-37.2,49.5-87.7,74.4l-0.2,0.1c0,0,0,0,0,0c-1,0.5-2.1,0.7-3.2,0.7c-3.5,0-6.4-2.3-7.2-5.5c-0.2-0.7-0.3-1.3-0.3-2.1
			c0-1.9,0.7-3.6,1.8-4.9c0-0.1,0.1-0.1,0.2-0.2c0.2-0.3,0.5-0.5,0.7-0.7c0.6-0.5,1.3-1,2.1-1.3c5.4-2.2,10.3-5.3,14.5-9.2
			c0.4-0.3,0.7-0.7,1.1-1l0,0c28.2-26.9,38.7-58,42.7-77.6c2-10,2.3-17,2.4-18.9c0-0.1,0-0.1,0-0.2c0-0.2,0-0.4,0-0.4
			c0-43.8-35.5-79.3-79.3-79.3s-79.3,35.5-79.3,79.3c0,0,0,0.1,0,0.4c0,0,0,0.1,0,0.2c0,1.9,0.4,8.9,2.4,18.9
			c4,19.6,14.6,50.7,42.7,77.6l0,0c0.3,0.3,0.7,0.7,1.1,1c4.2,3.9,9.1,7,14.5,9.2c0.8,0.3,1.5,0.8,2.1,1.3c0.3,0.2,0.5,0.4,0.7,0.7
			c0.1,0.1,0.1,0.1,0.2,0.2c1.1,1.3,1.8,3,1.8,4.9c0,0.7-0.1,1.4-0.3,2.1c-0.9,3.2-3.8,5.5-7.2,5.5c-1.2,0-2.3-0.3-3.2-0.7
			c0,0,0,0,0,0l-0.2-0.1c-50.5-24.9-87.7-74.4-87.7-74.4s-1.1-23.9-15.1-35.1c-12.2-9.7-15.2,3.1-15.2,3.1s-26.4-27.9-45.2-4.3
			c-17.3,21.8,0.9,42,36.2,61.1c14.1,7.6,27.7,16,40.8,25.2c3.7,2.6,7.6,5.4,11.6,8.4c2.5,1.8,35.2,26.8,42.6,42.6
			c0.3,0.7-0.1,1.6-0.9,1.7c-50.9,7-103-6-103-6s-15.7-18.1-33.7-18.1c-15.6,0-10,11.9-10,11.9s-38.1-5.4-38.1,24.8
			c0,27.9,26.8,32.3,66.4,25.3c15.9-2.8,31.9-4.8,48-5.7c20.3-1.2,53.8-0.1,77,2.4c1.1,0.1,1.4,1.5,0.6,2.1
			C183.7,291.7,97,354.7,72.4,361.3c-5-1.9-21.4-7.2-30.9-2.4c-5.4,2.7-7.2,8-4.7,14.2c1.7,4.4,5.4,9.1,10.3,13.3
			c2.9,2.5,9.8,7.5,13.3,9.8c10.4,6.6,32.8,21.4,40.7,17.4c4.6-2.3,6.6-5.9,5.8-10.3c-0.1-0.4,0.1-0.9,0.4-1.2
			c7.4-5.3,41.2-26.9,104.6-85.3c0.8-0.7,2.1-0.1,2,1c-2.7,31.6-13.7,64.7-19.2,83.9c-7.3,25.4-15.2,41.9-17.9,47.2
			c-0.3,0.5-0.6,0.8-1.1,1c-5.7,2.2-20.3,8.6-24.2,18c-2.3,5.6-0.2,10.8,5.7,13.9c4.1,2.2,10,3.4,16.5,3.4c3.9,0,12.3-0.7,16.5-1.3
			c12.2-1.8,38.8-5.1,42.2-13.4c2-4.8,1.2-8.8-2.3-11.5c-0.3-0.3-0.5-0.8-0.4-1.1C231.7,449.2,240.5,409.4,249,328.4"/>
	</g>
</g>
</svg>
